<svg id="visual" viewBox="0 0 960 540" width="960" height="540" xmlns="http://www.w3.org/2000/svg" xmlns:xlink="http://www.w3.org/1999/xlink" version="1.1"><rect x="0" y="0" width="960" height="540" fill="#FB8500"></rect><g transform="translate(556.948053729627 156.55347858230658)"><path d="M234.3 -241.7C343.2 -243.4 498.3 -227.8 513.1 -169.7C527.8 -111.6 402.3 -10.8 334.4 81.1C266.6 172.9 256.4 256 210.3 376C164.2 496 82.1 653 -30.7 695.2C-143.4 737.4 -286.8 664.8 -384 561.4C-481.2 457.9 -532.1 323.7 -583.2 185.1C-634.4 46.5 -685.7 -96.5 -662.4 -229.8C-639.1 -363 -541.1 -486.5 -418.3 -480.3C-295.5 -474.2 -147.7 -338.3 -42.5 -279.8C62.7 -221.3 125.4 -240.1 234.3 -241.7" fill="#023047"></path></g></svg>