<svg id="visual" viewBox="0 0 960 540" width="960" height="540" xmlns="http://www.w3.org/2000/svg" xmlns:xlink="http://www.w3.org/1999/xlink" version="1.1"><rect x="0" y="0" width="960" height="540" fill="#023047"></rect><g transform="translate(501.1945905207262 166.67576017899106)"><path d="M48.9 -125.2C63.6 -76.3 75.6 -63.5 161.5 -48.6C247.5 -33.8 407.2 -16.9 485 44.9C562.8 106.7 558.5 213.3 488.1 255C417.7 296.8 281.1 273.5 188.7 309.2C96.3 344.9 48.2 439.4 -21.8 477.2C-91.8 515.1 -183.7 496.1 -300.6 474.6C-417.5 453.1 -559.5 429.1 -581.4 349.5C-603.3 270 -505.2 135 -428.9 44C-352.7 -47 -298.5 -94 -253.6 -133.7C-208.6 -173.4 -173.1 -205.8 -132.4 -239.6C-91.7 -273.4 -45.8 -308.7 -14.3 -283.9C17.2 -259.1 34.3 -174.1 48.9 -125.2" fill="#FB8500"></path></g></svg>