<svg id="visual" viewBox="0 0 960 540" width="960" height="540" xmlns="http://www.w3.org/2000/svg" xmlns:xlink="http://www.w3.org/1999/xlink" version="1.1"><rect x="0" y="0" width="960" height="540" fill="#FB8500"></rect><path d="M0 494L11.5 494.3C23 494.7 46 495.3 68.8 495.5C91.7 495.7 114.3 495.3 137.2 494.8C160 494.3 183 493.7 205.8 492.5C228.7 491.3 251.3 489.7 274.2 491.8C297 494 320 500 342.8 504.3C365.7 508.7 388.3 511.3 411.2 512.5C434 513.7 457 513.3 480 510.5C503 507.7 526 502.3 548.8 501.5C571.7 500.7 594.3 504.3 617.2 508.3C640 512.3 663 516.7 685.8 515C708.7 513.3 731.3 505.7 754.2 501.2C777 496.7 800 495.3 822.8 497.7C845.7 500 868.3 506 891.2 511.7C914 517.3 937 522.7 948.5 525.3L960 528L960 541L948.5 541C937 541 914 541 891.2 541C868.3 541 845.7 541 822.8 541C800 541 777 541 754.2 541C731.3 541 708.7 541 685.8 541C663 541 640 541 617.2 541C594.3 541 571.7 541 548.8 541C526 541 503 541 480 541C457 541 434 541 411.2 541C388.3 541 365.7 541 342.8 541C320 541 297 541 274.2 541C251.3 541 228.7 541 205.8 541C183 541 160 541 137.2 541C114.3 541 91.7 541 68.8 541C46 541 23 541 11.5 541L0 541Z" fill="#023047" stroke-linecap="round" stroke-linejoin="miter"></path></svg>