<svg id="visual" viewBox="0 0 960 540" width="960" height="540" xmlns="http://www.w3.org/2000/svg" xmlns:xlink="http://www.w3.org/1999/xlink" version="1.1"><rect x="0" y="0" width="960" height="540" fill="#f0f8ff"></rect><path d="M0 486L16 481.8C32 477.7 64 469.3 96 468C128 466.7 160 472.3 192 479.2C224 486 256 494 288 499.2C320 504.3 352 506.7 384 507.2C416 507.7 448 506.3 480 505C512 503.7 544 502.3 576 495.2C608 488 640 475 672 471.5C704 468 736 474 768 482C800 490 832 500 864 501.8C896 503.7 928 497.3 944 494.2L960 491L960 541L944 541C928 541 896 541 864 541C832 541 800 541 768 541C736 541 704 541 672 541C640 541 608 541 576 541C544 541 512 541 480 541C448 541 416 541 384 541C352 541 320 541 288 541C256 541 224 541 192 541C160 541 128 541 96 541C64 541 32 541 16 541L0 541Z" fill="#023047" stroke-linecap="round" stroke-linejoin="miter"></path></svg>