<svg id="visual" viewBox="0 0 900 600" width="900" height="600" xmlns="http://www.w3.org/2000/svg" xmlns:xlink="http://www.w3.org/1999/xlink" version="1.1"><rect x="0" y="0" width="900" height="600" fill="#023047"></rect><path d="M559 600L550.3 583.3C541.7 566.7 524.3 533.3 518.5 500C512.7 466.7 518.3 433.3 533.2 400C548 366.7 572 333.3 582.2 300C592.3 266.7 588.7 233.3 579.3 200C570 166.7 555 133.3 552.8 100C550.7 66.7 561.3 33.3 566.7 16.7L572 0L900 0L900 16.7C900 33.3 900 66.7 900 100C900 133.3 900 166.7 900 200C900 233.3 900 266.7 900 300C900 333.3 900 366.7 900 400C900 433.3 900 466.7 900 500C900 533.3 900 566.7 900 583.3L900 600Z" fill="#FB8500" stroke-linecap="round" stroke-linejoin="miter"></path></svg>